<svg xmlns="http://www.w3.org/2000/svg" xmlns:xlink="http://www.w3.org/1999/xlink" width="1920" zoomAndPan="magnify" viewBox="0 0 1440 809.999993" height="1080" preserveAspectRatio="xMidYMid meet" version="1.0"><rect x="-144" width="1728" fill="#ffffff" y="-80.999999" height="971.999992" fill-opacity="1"/><rect x="-144" width="1728" fill="#19012b" y="-80.999999" height="971.999992" fill-opacity="1"/><path fill="#c1ff72" d="M 515.535156 1152.796875 C 420.304688 1136.625 328.195312 1070.542969 311.976562 970.46875 C 304.550781 924.625 313.320312 875.222656 340.585938 837.085938 C 367.867188 798.929688 411.730469 779.433594 451.003906 756.371094 C 469.636719 745.425781 487.953125 733.332031 503.027344 717.703125 C 519.878906 700.234375 531.242188 678.707031 536.707031 655.070312 C 549.441406 599.945312 533.097656 544.378906 523.835938 490.144531 C 518.84375 460.902344 515.933594 430.914062 520.796875 401.4375 C 524.9375 376.328125 534.023438 352.113281 547.214844 330.363281 C 574.441406 285.460938 618.644531 253.410156 669.742188 241.328125 C 695.429688 235.25 722.398438 234.167969 748.441406 238.605469 C 774.136719 242.980469 798.535156 252.773438 821.488281 264.929688 C 867.933594 289.539062 908.65625 323.851562 955.714844 347.355469 C 979.371094 359.171875 1006.652344 362.761719 1032.539062 357.28125 C 1045.871094 354.460938 1057.710938 348.414062 1070.320312 343.535156 C 1083.558594 338.40625 1097.226562 334.367188 1111.152344 331.59375 C 1162.804688 321.304688 1219.714844 329.59375 1259.941406 365.570312 C 1292.382812 394.585938 1313.765625 438.898438 1308.757812 482.976562 C 1303.117188 532.632812 1263.070312 568.179688 1219.707031 587.570312 C 1166.050781 611.574219 1105.96875 612.960938 1049.382812 625.949219 C 1001.429688 636.949219 952.882812 657.457031 923.640625 698.921875 C 895.003906 739.527344 889.066406 791.242188 887.523438 839.597656 C 885.851562 891.820312 889.523438 945.335938 874.050781 995.992188 C 866.214844 1021.648438 853.074219 1045.199219 834.003906 1064.199219 C 815.441406 1082.699219 792.777344 1096.523438 769.308594 1107.886719 C 716.941406 1133.222656 659.132812 1150.75 601.070312 1155.726562 C 572.574219 1158.167969 543.78125 1157.4375 515.535156 1152.796875 C 513.0625 1152.386719 512.003906 1156.167969 514.492188 1156.574219 C 572.769531 1166.148438 632.46875 1159.320312 688.867188 1142.796875 C 716.5625 1134.679688 743.828125 1124.433594 769.863281 1111.964844 C 793.453125 1100.664062 816.242188 1086.902344 835.109375 1068.621094 C 873.578125 1031.34375 885.984375 979.0625 889.386719 927.296875 C 892.886719 874.164062 887.8125 820.328125 899.175781 767.882812 C 904.585938 742.898438 913.832031 718.464844 929.238281 697.863281 C 945.136719 676.605469 966.925781 660.875 990.773438 649.613281 C 1043.910156 624.527344 1103.523438 622.097656 1160.179688 610.074219 C 1209.152344 599.6875 1259.832031 579.863281 1290.609375 538.261719 C 1317.679688 501.679688 1319.226562 454.769531 1300.585938 414.078125 C 1281.3125 372 1243.921875 340.8125 1199.191406 329.246094 C 1172.308594 322.300781 1144.0625 321.984375 1116.765625 326.597656 C 1102.785156 328.957031 1089.03125 332.621094 1075.675781 337.386719 C 1062.171875 342.203125 1049.460938 349.101562 1035.503906 352.585938 C 1006.9375 359.71875 977.765625 354.796875 952.027344 341.027344 C 928.402344 328.386719 906.152344 313.375 883.835938 298.601562 C 840.148438 269.691406 794.253906 240.378906 741.171875 233.601562 C 689.320312 226.984375 634.957031 241.175781 593.371094 272.960938 C 553.667969 303.300781 526.097656 349.007812 517.390625 398.191406 C 506.789062 458.117188 527.859375 516.28125 535.058594 575.210938 C 538.40625 602.617188 538.941406 630.980469 531.984375 657.886719 C 525.59375 682.621094 512.390625 704.175781 493.617188 721.429688 C 459.324219 752.945312 414.265625 769.042969 376.859375 796.183594 C 358.335938 809.625 342.246094 825.777344 330.414062 845.460938 C 318.597656 865.121094 311.082031 887.257812 307.71875 909.90625 C 300.875 955.921875 310.496094 1003.917969 335.132812 1043.425781 C 361.152344 1085.152344 401.335938 1116.707031 446.117188 1136.257812 C 467.988281 1145.808594 490.964844 1152.589844 514.492188 1156.582031 C 516.953125 1156.992188 518.019531 1153.21875 515.535156 1152.796875 Z M 515.535156 1152.796875 " fill-opacity="1" fill-rule="nonzero"/><path fill="#c1ff72" d="M 593.363281 1114.441406 C 538.28125 1116.589844 482.675781 1101.425781 437.085938 1070.238281 C 391.835938 1039.285156 353.734375 990.480469 350.582031 934.019531 C 349.054688 906.628906 355.945312 879.300781 372.039062 856.910156 C 385.132812 838.695312 403.121094 824.695312 421.800781 812.597656 C 458.929688 788.546875 501.613281 770.386719 531.175781 736.359375 C 564.691406 697.777344 572.644531 645.632812 572.261719 596.15625 C 571.859375 544.300781 562.308594 492.921875 564.707031 440.984375 C 566.976562 391.800781 580.644531 339.898438 621.074219 308.191406 C 658.347656 278.957031 711.207031 269.085938 757.324219 277.164062 C 771.246094 279.601562 785.234375 283.601562 797.46875 290.839844 C 807.691406 296.894531 817.148438 304.242188 827.0625 310.773438 C 848.21875 324.722656 870.378906 337.011719 892.578125 349.207031 C 910.898438 359.273438 929.320312 370.128906 948.960938 377.484375 C 963.710938 383.011719 977.960938 382.539062 993.511719 381.796875 C 1039.988281 379.570312 1086.175781 372.261719 1131.863281 363.808594 C 1156.988281 359.15625 1182.683594 355.660156 1206.875 366.207031 C 1218.632812 371.335938 1229.546875 379.082031 1238.628906 388.078125 C 1255.023438 404.324219 1264.285156 425.960938 1261.996094 449.210938 C 1259.824219 471.316406 1248.453125 491.949219 1234.660156 508.957031 C 1229.859375 514.871094 1224.675781 520.523438 1219.015625 525.621094 C 1212.53125 531.441406 1204.765625 535.769531 1197.175781 539.949219 C 1172.386719 553.585938 1145.320312 562.429688 1117.96875 569.285156 C 1066.164062 582.277344 1012.558594 588.214844 962.308594 607.003906 C 918.511719 623.382812 875.78125 649.472656 852.671875 691.542969 C 825.234375 741.496094 832.511719 800.558594 831.851562 855.25 C 831.53125 882.003906 828.945312 908.453125 821.25 934.167969 C 814.195312 957.753906 803.566406 980.222656 790.058594 1000.800781 C 763.191406 1041.742188 724.6875 1075.304688 679.683594 1094.898438 C 652.410156 1106.765625 623.027344 1113.101562 593.363281 1114.441406 C 590.851562 1114.550781 590.835938 1118.480469 593.363281 1118.363281 C 648.355469 1115.875 700.535156 1095.628906 742.621094 1060.160156 C 780.089844 1028.582031 808.710938 986.339844 823.644531 939.632812 C 831.664062 914.53125 834.972656 888.605469 835.632812 862.320312 C 836.363281 832.945312 834.464844 803.546875 836.023438 774.1875 C 837.554688 745.417969 842.832031 716.480469 857.332031 691.214844 C 869.699219 669.664062 887.789062 652.03125 908.351562 638.289062 C 951.878906 609.207031 1003.421875 597.136719 1054.019531 586.992188 C 1109.027344 575.957031 1166.445312 565.691406 1214.144531 534.285156 C 1226.136719 526.390625 1235.914062 514.492188 1244.125 502.894531 C 1256.75 485.054688 1266.285156 463.835938 1266.285156 441.636719 C 1266.292969 406.207031 1239.617188 376.046875 1208.203125 362.519531 C 1185.367188 352.6875 1161.308594 354.617188 1137.414062 358.8125 C 1109.191406 363.757812 1081.15625 368.855469 1052.707031 372.394531 C 1024.949219 375.851562 996.113281 379.742188 968.039062 378.0625 C 960.605469 377.617188 953.433594 375.136719 946.578125 372.347656 C 924.730469 363.453125 904.152344 351.109375 883.539062 339.738281 C 862.765625 328.285156 842.226562 316.394531 822.59375 303.054688 C 813.550781 296.910156 804.816406 290.0625 795.082031 285.003906 C 780.601562 277.476562 764.125 273.71875 748.015625 271.863281 C 724.445312 269.132812 700.238281 271 677.292969 276.992188 C 654.882812 282.839844 633.269531 292.847656 615.40625 307.738281 C 596.898438 323.164062 583.441406 343.878906 574.839844 366.253906 C 556.324219 414.425781 558.953125 468.4375 563.421875 518.890625 C 568.089844 571.441406 573.984375 626.503906 558.417969 677.882812 C 550.976562 702.445312 538.09375 724.863281 519.65625 742.804688 C 503.027344 758.992188 483.226562 771.414062 463.339844 783.152344 C 425.535156 805.46875 382.875 827.011719 360.957031 867.097656 C 333.675781 917.011719 347.632812 977.855469 380.261719 1021.492188 C 413.042969 1065.34375 461.902344 1095.792969 514.539062 1109.710938 C 540.203125 1116.496094 566.832031 1119.382812 593.355469 1118.355469 C 595.878906 1118.269531 595.886719 1114.347656 593.363281 1114.441406 Z M 593.363281 1114.441406 " fill-opacity="1" fill-rule="nonzero"/><path fill="#c1ff72" d="M 650.464844 1056.253906 C 578.542969 1084.078125 492.320312 1066.214844 437.015625 1012.476562 C 407.84375 984.136719 385.28125 942.566406 398.839844 901.207031 C 411.722656 861.90625 455.199219 849.148438 486.425781 828.203125 C 548.382812 786.648438 592.742188 719.351562 605.863281 645.851562 C 614.175781 599.292969 609.785156 551.828125 612.878906 504.878906 C 615.40625 466.660156 623.8125 426.878906 646.617188 395.28125 C 670.683594 361.925781 709.5625 345.597656 749.875 343.777344 C 794.078125 341.785156 837.050781 356.480469 876.792969 374.511719 C 886.496094 378.910156 895.882812 384.007812 904.71875 389.949219 C 913.382812 395.785156 920.96875 402.472656 930.722656 406.527344 C 950.214844 414.628906 971.703125 414.191406 992.082031 410.113281 C 1036.375 401.257812 1081.503906 375.222656 1127.761719 387.339844 C 1145.125 391.886719 1161.867188 402.222656 1171.777344 417.445312 C 1182.167969 433.402344 1182.636719 453.09375 1173.832031 469.875 C 1154.800781 506.148438 1110.0625 521.066406 1072.839844 529.550781 C 994.765625 547.335938 906.59375 540.949219 838.832031 590.378906 C 824.183594 601.058594 811.386719 614.144531 801.664062 629.484375 C 790.863281 646.515625 784.066406 665.816406 780.160156 685.527344 C 771.769531 727.835938 776.207031 770.910156 778.945312 813.53125 C 781.769531 857.523438 781.964844 902.296875 764.773438 943.6875 C 750.613281 977.773438 726.859375 1007.925781 697.328125 1030.015625 C 682.945312 1040.777344 667.183594 1049.660156 650.464844 1056.253906 C 648.144531 1057.171875 649.15625 1060.960938 651.507812 1060.035156 C 686.011719 1046.421875 716.460938 1023.46875 739.398438 994.335938 C 763.417969 963.824219 778.222656 927.683594 782.613281 889.109375 C 788.019531 841.675781 779.746094 794.238281 779.179688 746.796875 C 778.6875 705.132812 784.050781 661.039062 808.625 626.113281 C 831.085938 594.1875 866.757812 574.960938 903.253906 563.464844 C 944.492188 550.480469 987.714844 547.21875 1030.289062 541.117188 C 1052.863281 537.886719 1075.410156 533.839844 1097.242188 527.109375 C 1116.710938 521.113281 1135.722656 513.199219 1151.9375 500.652344 C 1165.878906 489.871094 1178.261719 475.496094 1182.542969 458.015625 C 1186.644531 441.28125 1182.308594 424.054688 1171.699219 410.628906 C 1160.824219 396.859375 1144.636719 387.457031 1127.722656 383.261719 C 1105.421875 377.726562 1081.722656 381.214844 1059.804688 386.796875 C 1017.359375 397.613281 968.015625 423.285156 925.304688 399.566406 C 915.878906 394.335938 907.792969 386.882812 898.492188 381.347656 C 888.367188 375.324219 877.671875 370.488281 866.84375 365.882812 C 845.828125 356.960938 824.246094 349.171875 801.875 344.429688 C 763.269531 336.242188 721.011719 337.644531 685.496094 356.308594 C 650.6875 374.605469 629.378906 408.589844 618.722656 445.554688 C 606.285156 488.710938 608.105469 533.832031 607.375 578.253906 C 606.984375 602.101562 605.832031 626.042969 601.195312 649.488281 C 597.449219 668.464844 591.628906 687.050781 583.90625 704.78125 C 568.378906 740.445312 545.417969 772.824219 516.820312 799.210938 C 502.59375 812.339844 486.972656 823.9375 470.246094 833.683594 C 453.558594 843.40625 435.796875 851.5625 420.734375 863.835938 C 405.144531 876.539062 394.832031 893.625 391.902344 913.621094 C 389.007812 933.367188 392.976562 953.285156 401.546875 971.179688 C 418.507812 1006.601562 451.097656 1034.402344 485.929688 1051.441406 C 519.648438 1067.941406 557.777344 1075.5625 595.246094 1072.714844 C 614.527344 1071.25 633.457031 1066.992188 651.484375 1060.019531 C 653.839844 1059.132812 652.828125 1055.339844 650.464844 1056.253906 Z M 650.464844 1056.253906 " fill-opacity="1" fill-rule="nonzero"/><path fill="#c1ff72" d="M 651.492188 973.070312 C 620.707031 993.890625 583.417969 1006.84375 545.960938 1005.441406 C 528.082031 1004.773438 509.769531 1000.296875 495.144531 989.601562 C 482.113281 980.074219 472.011719 965.605469 469.542969 949.46875 C 463.839844 912.117188 499.992188 887.632812 527.421875 870.882812 C 542.507812 861.671875 557.375 852.246094 569.898438 839.621094 C 581.207031 828.21875 590.625 815.003906 598.265625 800.898438 C 634.375 734.195312 629.222656 656.632812 634.640625 583.429688 C 639.636719 515.976562 657.5625 440.398438 718.878906 401.996094 C 748.566406 383.402344 784.90625 375.445312 819.574219 381.082031 C 838.136719 384.101562 856.414062 390.671875 872.433594 400.578125 C 879.726562 405.085938 886.257812 410.730469 891.945312 417.136719 C 897.371094 423.253906 901.089844 430.6875 906.65625 436.625 C 926.511719 457.789062 960.582031 452.691406 984.382812 442.191406 C 1014.015625 429.113281 1043.589844 405.132812 1077.910156 413.40625 C 1090.542969 416.449219 1103.273438 423.8125 1108.382812 436.34375 C 1115.058594 452.691406 1106.449219 470.59375 1093.785156 481.285156 C 1079.621094 493.234375 1060.449219 498.605469 1042.671875 502.386719 C 1023.324219 506.496094 1003.546875 508.0625 983.8125 508.753906 C 917.367188 511.089844 841.28125 503.78125 785.6875 548.070312 C 731.300781 591.40625 729.355469 667.085938 733.386719 730.597656 C 735.933594 770.730469 740.175781 811.585938 732.609375 851.453125 C 726.273438 884.820312 710.660156 915.691406 688.042969 940.996094 C 677.199219 953.136719 664.910156 963.894531 651.492188 973.070312 C 649.421875 974.488281 651.382812 977.886719 653.46875 976.457031 C 680.953125 957.660156 703.960938 932.308594 719.199219 902.628906 C 736.585938 868.765625 741.304688 831.222656 740.691406 793.558594 C 740.066406 754.6875 734.492188 715.957031 736.035156 677.042969 C 737.359375 643.734375 743.585938 609.285156 761.675781 580.71875 C 779.972656 551.820312 809.402344 533.871094 841.75 524.5 C 876.363281 514.460938 912.449219 513.6875 948.21875 513.332031 C 987.746094 512.941406 1028.4375 512.871094 1066.320312 500.074219 C 1082.46875 494.621094 1098.550781 486.082031 1107.75 471.152344 C 1115.722656 458.207031 1117.386719 441.417969 1108.535156 428.460938 C 1101.164062 417.679688 1088.65625 411.460938 1076.101562 409.023438 C 1060.949219 406.082031 1046.253906 408.800781 1032.0625 414.464844 C 1001.210938 426.769531 973.207031 450.636719 938.070312 446.945312 C 930.902344 446.191406 923.765625 444.167969 917.5625 440.429688 C 910.796875 436.351562 906.867188 430.625 902.460938 424.273438 C 892.3125 409.632812 878.910156 398.789062 862.984375 390.953125 C 830.214844 374.832031 792.566406 371.121094 757.339844 380.855469 C 724.085938 390.035156 695.09375 410.347656 674.792969 438.191406 C 654.628906 465.84375 643.304688 499.109375 637.015625 532.480469 C 629.636719 571.589844 629.261719 611.542969 627.316406 651.167969 C 625.449219 689.207031 622.0625 727.476562 609.933594 763.804688 C 599.257812 795.785156 581.8125 826.15625 555.28125 847.539062 C 527.484375 869.953125 489.710938 882.152344 472.113281 915.441406 C 464.609375 929.636719 462.921875 945.945312 468.53125 961.113281 C 474.042969 976.027344 485.210938 988.683594 498.847656 996.738281 C 530.410156 1015.367188 571.921875 1011.449219 605.34375 1000.328125 C 622.410156 994.652344 638.570312 986.527344 653.460938 976.457031 C 655.546875 975.046875 653.585938 971.652344 651.492188 973.070312 Z M 651.492188 973.070312 " fill-opacity="1" fill-rule="nonzero"/><path fill="#c1ff72" d="M 598.757812 938.707031 C 593.941406 936.105469 590.320312 932.074219 589.144531 926.625 C 588.03125 921.449219 589.597656 916.125 591.925781 911.511719 C 596.882812 901.695312 604.96875 893.929688 611.585938 885.273438 C 624.511719 868.351562 633.921875 849 640.59375 828.835938 C 655.351562 784.242188 656.542969 736.910156 656.636719 690.382812 C 656.730469 642.109375 655.886719 593.003906 669.191406 546.144531 C 680.289062 507.050781 701.710938 467.828125 737.296875 446.097656 C 769.800781 426.25 814.34375 420.902344 848.148438 440.703125 C 852.734375 443.390625 856.921875 446.664062 861.628906 449.15625 C 866.601562 451.789062 871.800781 453.601562 877.09375 455.445312 C 881.90625 457.117188 886.007812 461.304688 887.453125 466.210938 C 888.800781 470.792969 887.253906 475.597656 884.558594 479.386719 C 878.792969 487.464844 868.324219 490.953125 858.789062 491.335938 C 846.414062 491.832031 834.269531 488.570312 821.917969 488.464844 C 782.113281 488.128906 746.441406 514.140625 725.621094 546.613281 C 700.769531 585.367188 695.949219 633.484375 696.113281 678.449219 C 696.300781 729.128906 703.148438 780.59375 693.4375 830.820312 C 685.769531 870.484375 666.792969 912.179688 631.308594 934.277344 C 621.5625 940.347656 609.664062 944.15625 598.757812 938.707031 C 596.507812 937.585938 594.515625 940.964844 596.78125 942.09375 C 617.835938 952.617188 640.179688 934.945312 654.269531 920.492188 C 668.847656 905.546875 679.503906 887.203125 687 867.8125 C 704.964844 821.308594 703.164062 770.722656 701.234375 721.78125 C 699.296875 672.746094 697.375 621.667969 715.617188 575.117188 C 730.679688 536.675781 762.703125 502.078125 804.53125 493.980469 C 815.535156 491.847656 826.417969 492.285156 837.484375 493.664062 C 848.863281 495.085938 860.835938 496.847656 871.917969 492.882812 C 880.355469 489.863281 888.34375 483.863281 891.058594 474.988281 C 893.945312 465.53125 888.09375 455.5625 879.109375 452.019531 C 873.3125 449.734375 867.535156 448.003906 862.058594 444.929688 C 857.527344 442.378906 853.425781 439.164062 848.894531 436.609375 C 840.511719 431.878906 831.335938 428.570312 821.925781 426.632812 C 802.542969 422.644531 782.144531 424.21875 763.308594 430.09375 C 743.859375 436.152344 726.445312 446.867188 712.015625 461.207031 C 697.070312 476.070312 685.480469 494.058594 676.910156 513.253906 C 657.640625 556.414062 653.570312 603.8125 652.898438 650.53125 C 652.175781 700.445312 654.800781 750.929688 644.285156 800.082031 C 639.605469 821.953125 632.445312 843.421875 621.507812 862.988281 C 616.03125 872.773438 609.617188 881.910156 602.371094 890.457031 C 595.558594 898.488281 587.730469 907.292969 585.457031 917.886719 C 583.308594 927.878906 587.875 937.257812 596.789062 942.085938 C 599 943.296875 600.984375 939.914062 598.757812 938.707031 Z M 598.757812 938.707031 " fill-opacity="1" fill-rule="nonzero"/><path fill="#c1ff72" d="M 1556.789062 1204.222656 C 1534.097656 1145.203125 1507.496094 1086.5 1466.25 1037.90625 C 1429.769531 994.925781 1379.96875 961.503906 1324.378906 949.648438 C 1297.613281 943.9375 1269.6875 943.539062 1243.035156 950.078125 C 1212.851562 957.480469 1186.824219 974.582031 1159.574219 988.769531 C 1145.898438 995.890625 1131.730469 1002.265625 1116.695312 1005.894531 C 1104.324219 1008.882812 1091.554688 1010.042969 1078.84375 1009.566406 C 1052.976562 1008.59375 1027.433594 1000.78125 1005.21875 987.546875 C 983.027344 974.332031 964.082031 955.527344 951.816406 932.703125 C 939.636719 910.03125 934.550781 884.019531 935.828125 858.402344 C 937.105469 832.742188 944.742188 807.335938 958.050781 785.347656 C 972.355469 761.726562 993 743.519531 1017.609375 731.144531 C 1071.175781 704.199219 1132.828125 705.644531 1190.566406 695.207031 C 1240.195312 686.234375 1294.546875 667.515625 1323.128906 622.96875 C 1339.496094 597.457031 1343.269531 567.054688 1350.355469 538.222656 C 1354.027344 523.292969 1358.707031 508.390625 1366.738281 495.164062 C 1373.8125 483.511719 1383.355469 473.355469 1394.378906 465.355469 C 1416.550781 449.28125 1444.914062 441.203125 1472.1875 445.234375 C 1499.710938 449.296875 1524.90625 465.285156 1541.484375 487.46875 C 1550.507812 499.546875 1556.886719 513.347656 1560.070312 528.097656 C 1560.601562 530.5625 1564.382812 529.519531 1563.847656 527.054688 C 1557.777344 498.910156 1540.054688 474.148438 1516.171875 458.261719 C 1493.492188 443.179688 1466.085938 437.261719 1439.242188 442.019531 C 1412.894531 446.695312 1388.050781 461.066406 1371.253906 481.964844 C 1352.074219 505.828125 1346.8125 536.136719 1340.296875 565.207031 C 1336.832031 580.660156 1332.871094 596.203125 1325.75 610.4375 C 1319.789062 622.363281 1311.722656 633.09375 1302.089844 642.296875 C 1282.816406 660.726562 1258.191406 672.644531 1233.035156 680.753906 C 1177.070312 698.789062 1117.378906 696.734375 1060.675781 711.320312 C 1032.59375 718.542969 1005.054688 730.1875 983.011719 749.417969 C 963.796875 766.183594 949.574219 788.257812 941.058594 812.222656 C 923.859375 860.621094 930.375 916.554688 963.296875 956.800781 C 995.613281 996.304688 1048.960938 1018.238281 1099.71875 1012.78125 C 1129.429688 1009.589844 1155.480469 995.742188 1181.21875 981.46875 C 1195.609375 973.484375 1210.074219 965.457031 1225.507812 959.628906 C 1239.066406 954.507812 1253.300781 951.214844 1267.738281 949.882812 C 1325.671875 944.535156 1383.449219 968.8125 1427.597656 1005.136719 C 1476.859375 1045.660156 1509.511719 1102.671875 1534.714844 1160.371094 C 1541.1875 1175.183594 1547.207031 1190.175781 1553.003906 1205.265625 C 1553.90625 1207.59375 1557.691406 1206.582031 1556.789062 1204.222656 Z M 1556.789062 1204.222656 " fill-opacity="1" fill-rule="nonzero"/><path fill="#c1ff72" d="M 1556.789062 1079.285156 C 1537.59375 1031.648438 1505.410156 989.414062 1463.230469 959.863281 C 1422.515625 931.335938 1373.625 914.972656 1324.070312 912.039062 C 1298.992188 910.554688 1273.679688 912.554688 1249.191406 918.1875 C 1222.269531 924.375 1196.933594 935.476562 1171.519531 946.03125 C 1146.847656 956.273438 1121.339844 966.609375 1094.628906 969.894531 C 1073.082031 972.546875 1050.542969 970.867188 1030.164062 963.070312 C 1010.066406 955.386719 992.601562 940.847656 984.25 920.671875 C 976.257812 901.382812 977.992188 879.847656 985.480469 860.707031 C 993.457031 840.324219 1007.617188 822.414062 1024.585938 808.753906 C 1044.394531 792.804688 1068.632812 784.179688 1093.320312 779.121094 C 1146.285156 768.269531 1200.925781 774.445312 1254.074219 765.273438 C 1296.851562 757.894531 1341.980469 740.585938 1367.335938 703.339844 C 1382.367188 681.253906 1386.960938 654.8125 1392.355469 629.179688 C 1395.0625 616.34375 1397.894531 603.238281 1403.070312 591.136719 C 1407.804688 580.074219 1414.488281 569.707031 1422.941406 561.121094 C 1430.960938 552.972656 1440.835938 546.292969 1452.101562 543.71875 C 1463.535156 541.109375 1475.316406 543.476562 1485.265625 549.539062 C 1507.269531 562.941406 1517.355469 588.097656 1530.558594 608.953125 C 1536.925781 619.007812 1544.304688 628.542969 1553.90625 635.71875 C 1555.929688 637.230469 1557.878906 633.828125 1555.882812 632.332031 C 1534.824219 616.59375 1526.152344 590.246094 1511.199219 569.582031 C 1504.226562 559.953125 1495.890625 550.925781 1485.40625 545.085938 C 1475.402344 539.507812 1463.851562 537.429688 1452.582031 539.617188 C 1430.019531 543.984375 1412.582031 563.355469 1402.566406 583 C 1390.414062 606.855469 1388.214844 634.339844 1381.582031 659.933594 C 1378.226562 672.890625 1373.75 685.570312 1366.730469 697.027344 C 1360.949219 706.46875 1353.667969 714.898438 1345.355469 722.199219 C 1328.351562 737.128906 1307.429688 747.03125 1285.953125 753.683594 C 1235.523438 769.289062 1182.574219 765.414062 1130.640625 769.960938 C 1102.917969 772.394531 1075.082031 777.308594 1049.546875 788.773438 C 1029.550781 797.753906 1012.0625 812.253906 998.773438 829.605469 C 985.980469 846.316406 976.761719 866.398438 975.222656 887.570312 C 973.710938 908.335938 980.671875 928.835938 994.757812 944.214844 C 1024.964844 977.203125 1076.453125 979.886719 1117.128906 969.457031 C 1144.746094 962.375 1170.695312 950.328125 1197.019531 939.632812 C 1222.222656 929.398438 1247.921875 920.945312 1275.003906 917.527344 C 1325.539062 911.152344 1377.890625 919.597656 1423.871094 941.484375 C 1471 963.910156 1509.976562 1000.460938 1536.082031 1045.597656 C 1542.535156 1056.75 1548.179688 1068.355469 1552.996094 1080.304688 C 1553.9375 1082.644531 1557.730469 1081.632812 1556.789062 1079.285156 Z M 1556.789062 1079.285156 " fill-opacity="1" fill-rule="nonzero"/><path fill="#c1ff72" d="M 1566.851562 1022.792969 C 1558.234375 981.242188 1535.710938 943.609375 1505.113281 914.46875 C 1476.539062 887.257812 1441.007812 867.136719 1402.785156 857.175781 C 1383.917969 852.261719 1364.355469 849.835938 1344.859375 850.324219 C 1323.742188 850.855469 1303.039062 855.121094 1283.011719 861.742188 C 1239.230469 876.210938 1199.605469 900.472656 1156.699219 917.066406 C 1136.097656 925.03125 1114.023438 931.925781 1091.839844 933.140625 C 1074.078125 934.113281 1052.136719 931.039062 1040.875 915.574219 C 1028.476562 898.566406 1036.234375 875.910156 1050.214844 862.492188 C 1067.371094 846.027344 1093.25 843.273438 1115.867188 842.199219 C 1168.40625 839.707031 1221.507812 842.230469 1273.28125 831.191406 C 1314.503906 822.398438 1354.960938 803.695312 1383.753906 772.1875 C 1397.28125 757.390625 1407.796875 739.855469 1413.46875 720.566406 C 1420.28125 697.371094 1420.328125 671.28125 1435.25 651.175781 C 1441.328125 642.988281 1449.757812 636.234375 1459.914062 634.167969 C 1470.867188 631.929688 1481.777344 635.835938 1490.707031 642.0625 C 1510.054688 655.550781 1518.671875 678.054688 1531.273438 697.042969 C 1537.359375 706.207031 1544.488281 714.820312 1553.898438 720.699219 C 1556.046875 722.039062 1558.015625 718.652344 1555.875 717.3125 C 1535.414062 704.523438 1526.78125 679.742188 1513.761719 660.59375 C 1502.242188 643.648438 1483.1875 626.882812 1461.183594 629.988281 C 1439.878906 632.996094 1426.476562 653.253906 1420.546875 672.285156 C 1416.699219 684.652344 1414.964844 697.527344 1412.085938 710.128906 C 1409.617188 720.957031 1406.023438 731.410156 1400.859375 741.261719 C 1381.230469 778.65625 1343.925781 804.230469 1304.929688 818.242188 C 1255.800781 835.894531 1202.476562 836.113281 1150.933594 837.226562 C 1137.894531 837.511719 1124.828125 837.730469 1111.796875 838.492188 C 1099.84375 839.1875 1087.792969 840.480469 1076.28125 843.910156 C 1056.054688 849.921875 1038.066406 863.617188 1032.25 884.671875 C 1029.714844 893.835938 1030.125 903.664062 1034.3125 912.28125 C 1038.199219 920.296875 1045.039062 926.484375 1052.957031 930.394531 C 1070.523438 939.070312 1091.117188 938.152344 1109.875 934.769531 C 1155.699219 926.507812 1196.808594 903.175781 1238.621094 883.902344 C 1259.847656 874.117188 1281.617188 865.175781 1304.386719 859.671875 C 1324.203125 854.878906 1344.5625 853.226562 1364.886719 854.753906 C 1404.925781 857.773438 1443.71875 872.804688 1476.40625 895.921875 C 1509.066406 919.023438 1536.015625 950.738281 1551.757812 987.648438 C 1556.71875 999.292969 1560.476562 1011.433594 1563.046875 1023.828125 C 1563.582031 1026.308594 1567.363281 1025.265625 1566.851562 1022.792969 Z M 1566.851562 1022.792969 " fill-opacity="1" fill-rule="nonzero"/><path fill="#c1ff72" d="M 1556.28125 907.96875 C 1549.6875 900.550781 1542.269531 893.90625 1534.558594 887.675781 C 1526.539062 881.1875 1518.1875 875.113281 1509.851562 869.035156 C 1501.570312 863.003906 1493.273438 856.980469 1485.304688 850.527344 C 1477.558594 844.246094 1470.09375 837.558594 1463.457031 830.101562 C 1457.050781 822.902344 1451.5 814.933594 1447.398438 806.199219 C 1442.277344 795.28125 1439.558594 783.089844 1440.8125 771.019531 C 1442.003906 759.523438 1447.273438 748.804688 1456.25 741.433594 C 1460.28125 738.125 1465.042969 735.628906 1470.101562 734.328125 C 1475.441406 732.957031 1481.039062 733.089844 1486.371094 734.460938 C 1497.75 737.394531 1507.230469 745.195312 1515.628906 753.078125 C 1520.546875 757.6875 1525.273438 762.496094 1530.066406 767.234375 C 1535.34375 772.449219 1540.613281 777.664062 1545.890625 782.875 C 1548.4375 785.394531 1550.980469 787.910156 1553.527344 790.429688 C 1555.324219 792.207031 1558.101562 789.433594 1556.304688 787.652344 C 1545.617188 777.082031 1534.929688 766.519531 1524.246094 755.949219 C 1515.621094 747.417969 1506.46875 738.671875 1495.320312 733.542969 C 1489.832031 731.019531 1483.925781 729.441406 1477.855469 729.433594 C 1472.148438 729.425781 1466.53125 730.886719 1461.441406 733.433594 C 1451.125 738.59375 1443.3125 748.074219 1439.542969 758.898438 C 1435.148438 771.492188 1435.996094 785.566406 1440.050781 798.121094 C 1443.203125 807.898438 1448.230469 817.011719 1454.417969 825.183594 C 1460.558594 833.300781 1467.722656 840.5625 1475.371094 847.25 C 1483.28125 854.175781 1491.679688 860.527344 1500.148438 866.753906 C 1508.628906 872.984375 1517.207031 879.078125 1525.542969 885.492188 C 1533.601562 891.6875 1541.460938 898.222656 1548.605469 905.464844 C 1550.289062 907.175781 1551.9375 908.933594 1553.535156 910.726562 C 1555.191406 912.625 1557.960938 909.851562 1556.28125 907.96875 Z M 1556.28125 907.96875 " fill-opacity="1" fill-rule="nonzero"/><path fill="#c1ff72" d="M -109.242188 975.40625 C -124.171875 865.71875 -72.101562 764.722656 -38.445312 663.691406 C -21.734375 613.542969 -9.03125 560.847656 -10.664062 507.648438 C -11.453125 481.917969 -15.886719 456.496094 -24.152344 432.109375 C -32.25 408.207031 -43.378906 385.480469 -54.898438 363.078125 C -78.910156 316.378906 -105.871094 268.570312 -109.898438 215.085938 C -113.320312 169.636719 -96.199219 127.230469 -63.398438 95.832031 C -32.0625 65.84375 9.5625 48.253906 52.714844 45.417969 C 102.738281 42.121094 152.601562 56.722656 196.140625 80.734375 C 239.933594 104.886719 277.441406 138.898438 310.816406 175.832031 C 327.511719 194.308594 343.265625 213.613281 358.589844 233.226562 C 371.910156 250.273438 388.519531 264.351562 402.125 281.257812 C 425.3125 310.074219 439.140625 345.394531 452.210938 379.640625 C 471.421875 429.976562 480.730469 483.417969 487.34375 536.675781 C 493.089844 582.929688 501.714844 637.304688 474.230469 678.605469 C 452.046875 711.941406 412.484375 726.574219 377.183594 741.496094 C 358.988281 749.179688 340.742188 757.164062 324.171875 768.039062 C 307.203125 779.175781 292.71875 793.566406 281.582031 810.550781 C 270.132812 828.015625 262.222656 847.886719 258.636719 868.453125 C 254.835938 890.246094 256.710938 911.207031 261.34375 932.691406 C 265.929688 953.929688 271.160156 986.355469 247.386719 998.941406 C 223.921875 1011.363281 199.207031 990.007812 180.417969 978.324219 C 163.40625 967.738281 144.101562 961.832031 125.21875 971.367188 C 108.148438 979.988281 96.550781 997.355469 88.863281 1014.300781 C 72.34375 1050.765625 69.566406 1105.085938 23.0625 1116.964844 C -27.390625 1129.859375 -68.925781 1084.40625 -88.953125 1043.707031 C -99.503906 1022.261719 -105.855469 999.019531 -109.242188 975.40625 C -109.59375 972.921875 -113.375 973.980469 -113.019531 976.449219 C -106.277344 1023.492188 -86.304688 1072.738281 -47.871094 1102.742188 C -30.425781 1116.363281 -8.671875 1124.800781 13.703125 1122.542969 C 34.671875 1120.425781 51.890625 1108.921875 63.128906 1091.300781 C 85.71875 1055.871094 83.648438 1004.789062 120.640625 978.707031 C 129.132812 972.71875 139.136719 969.488281 149.574219 970.363281 C 162.425781 971.445312 173.8125 978.542969 184.304688 985.492188 C 201.753906 997.042969 223.851562 1012.617188 245.824219 1003.953125 C 265.554688 996.179688 270.917969 972.695312 269.003906 953.671875 C 267.671875 940.410156 263.734375 927.605469 261.75 914.445312 C 260.113281 903.59375 259.878906 892.535156 260.824219 881.605469 C 264.777344 836.191406 290.105469 794.199219 328.609375 769.84375 C 362.871094 748.167969 403.011719 738.304688 437.632812 717.335938 C 453.6875 707.613281 468.175781 695.253906 478.410156 679.375 C 490.996094 659.847656 495.8125 636.597656 496.753906 613.660156 C 497.789062 588.261719 494.492188 562.828125 491.390625 537.671875 C 488.054688 510.683594 484.082031 483.746094 478.503906 457.117188 C 468.71875 410.386719 452.730469 365.101562 432.105469 322.050781 C 425.046875 307.296875 416.632812 293.386719 406.515625 280.527344 C 392.753906 263.03125 375.582031 248.683594 361.9375 231.195312 C 330.453125 190.863281 297.046875 151.539062 257.671875 118.625 C 185.53125 58.324219 82.246094 17.082031 -9.753906 56.105469 C -47 71.898438 -80.023438 99.835938 -98.59375 136.128906 C -121.269531 180.480469 -116.300781 230.769531 -99.972656 276.363281 C -81.921875 326.785156 -51.339844 371.476562 -32.179688 421.410156 C -22.402344 446.914062 -16.386719 473.441406 -14.890625 500.738281 C -13.367188 528.359375 -15.957031 556.078125 -21.046875 583.226562 C -41.230469 690.972656 -101.304688 787.769531 -113.65625 897.351562 C -116.621094 923.652344 -116.605469 950.203125 -113.027344 976.441406 C -112.683594 978.945312 -108.90625 977.878906 -109.242188 975.40625 Z M -109.242188 975.40625 " fill-opacity="1" fill-rule="nonzero"/><path fill="#c1ff72" d="M 52.054688 984.082031 C 42.792969 1001.722656 32.742188 1020.945312 15.78125 1032.402344 C -1.238281 1043.898438 -22.160156 1043.605469 -40.03125 1034.132812 C -81.535156 1012.144531 -86.40625 961.925781 -80.902344 920.089844 C -68.472656 825.730469 -21.195312 740.820312 11.097656 652.554688 C 41.515625 569.402344 60.632812 473.058594 23.925781 388.671875 C 7.414062 350.703125 -19.078125 318.316406 -38.523438 281.953125 C -48.042969 264.152344 -55.800781 245.253906 -59.085938 225.25 C -62.324219 205.550781 -60.628906 185.328125 -54.664062 166.304688 C -42.382812 127.199219 -12.339844 94.84375 26.84375 81.996094 C 46.589844 75.527344 67.910156 73.734375 88.464844 76.824219 C 98.421875 78.320312 108.21875 80.914062 117.574219 84.640625 C 127.179688 88.46875 135.921875 93.941406 145.128906 98.574219 C 215.46875 134.019531 277.8125 184.621094 328.085938 245.167969 C 378.53125 305.925781 416.84375 376.957031 438.769531 452.871094 C 451.976562 498.597656 461.300781 547.742188 453.230469 595.246094 C 446.441406 635.234375 425.691406 674.832031 390.441406 696.617188 C 353.554688 719.421875 307.046875 719.875 271.671875 745.855469 C 241.347656 768.132812 221.390625 803.75 218.246094 841.257812 C 216.347656 863.90625 224.246094 886.300781 221.484375 908.832031 C 219.078125 928.480469 205.320312 947.421875 183.546875 944.15625 C 165.007812 941.382812 149.882812 928.152344 131.773438 923.753906 C 114.46875 919.550781 98.007812 925.675781 84.9375 937.148438 C 70.289062 950 60.957031 967.0625 52.054688 984.082031 C 50.886719 986.316406 54.265625 988.300781 55.441406 986.054688 C 65.261719 967.300781 75.816406 947.601562 93.679688 935.234375 C 101.679688 929.699219 110.929688 926.097656 120.75 926.222656 C 130.800781 926.347656 140.28125 930.347656 149.207031 934.621094 C 164.625 942 182.132812 952.863281 199.792969 946.621094 C 216.347656 940.769531 224.378906 922.625 225.65625 906.21875 C 226.628906 893.703125 224.371094 881.234375 222.925781 868.855469 C 221.6875 858.25 221.328125 847.671875 222.597656 837.054688 C 225.058594 816.398438 232.894531 796.425781 244.671875 779.324219 C 256.300781 762.441406 271.882812 748.4375 290.144531 739.074219 C 310.894531 728.433594 333.878906 723.445312 355.890625 716.175781 C 375.675781 709.636719 394.425781 700.859375 410 686.761719 C 424.914062 673.257812 436.464844 656.226562 444.574219 637.875 C 463.636719 594.730469 462.679688 546.324219 454.234375 500.746094 C 439.304688 420.203125 404.839844 343.175781 357.285156 276.667969 C 310.808594 211.667969 251.242188 155.945312 182.675781 114.800781 C 173.914062 109.546875 165.015625 104.527344 155.980469 99.765625 C 147.042969 95.054688 138.171875 90.128906 129.171875 85.589844 C 111.292969 76.578125 91.359375 71.882812 71.363281 71.488281 C 30.679688 70.683594 -8.734375 88.042969 -34.265625 119.929688 C -58.671875 150.402344 -69.53125 190.683594 -62.347656 229.179688 C -54.671875 270.324219 -29.546875 305.207031 -7.589844 339.835938 C 3.867188 357.910156 14.925781 376.390625 22.914062 396.3125 C 31.800781 418.441406 37.007812 441.964844 39.039062 465.703125 C 43.09375 513.003906 35.210938 560.640625 22.21875 606.046875 C -4.382812 698.976562 -54.347656 783.636719 -76.878906 877.925781 C -86.84375 919.636719 -96.160156 971.628906 -71.515625 1010.203125 C -61.792969 1025.429688 -46.570312 1037.65625 -29.152344 1042.800781 C -11.195312 1048.101562 7.429688 1044.320312 22.035156 1032.652344 C 37.148438 1020.582031 46.621094 1002.886719 55.449219 986.0625 C 56.609375 983.828125 53.230469 981.84375 52.054688 984.082031 Z M 52.054688 984.082031 " fill-opacity="1" fill-rule="nonzero"/><path fill="#c1ff72" d="M 66.609375 872.523438 C 57.425781 882.914062 53.789062 896.722656 49.679688 909.636719 C 45.375 923.164062 40.214844 938.613281 27.09375 946.0625 C 12.5 954.351562 -7 949.128906 -18.285156 937.59375 C -31.066406 924.539062 -34.824219 905.089844 -33.253906 887.4375 C -31.40625 866.609375 -22.589844 847.0625 -14.582031 828.015625 C -6.382812 808.488281 1.929688 789 10.023438 769.429688 C 26.082031 730.597656 41.351562 691.347656 53.167969 650.996094 C 75.328125 575.335938 85.171875 493.445312 64.492188 416.28125 C 59.503906 397.667969 52.660156 379.621094 44.136719 362.339844 C 35.4375 344.710938 25.316406 327.859375 15.628906 310.773438 C -2.390625 278.964844 -18.914062 245.554688 -20.035156 208.304688 C -21.023438 175.542969 -9.078125 140.992188 21.238281 124.703125 C 49.3125 109.625 84.246094 113.066406 108.84375 133 C 111.707031 135.320312 115.722656 136.207031 119.148438 137.5625 C 123.894531 139.445312 128.597656 141.414062 133.273438 143.460938 C 141.316406 146.988281 149.261719 150.746094 157.085938 154.722656 C 173.335938 162.988281 189.089844 172.210938 204.253906 182.316406 C 234.632812 202.570312 262.613281 226.410156 287.410156 253.207031 C 339.367188 309.359375 376.46875 378.546875 395.234375 452.667969 C 404.25 488.292969 410.03125 525.847656 408.878906 562.671875 C 407.890625 594.296875 400.488281 629.195312 375.425781 650.773438 C 347.265625 675.019531 307.078125 672.589844 273.953125 685.488281 C 244.515625 696.953125 219.992188 719.539062 205.03125 747.25 C 197.503906 761.203125 192.40625 776.453125 190.320312 792.175781 C 187.765625 811.375 191.746094 831.753906 184.847656 850.246094 C 181.8125 858.371094 176.582031 865.914062 168.796875 870.078125 C 162.246094 873.582031 154.671875 874.125 147.410156 873.230469 C 132.582031 871.402344 118.851562 864.707031 104.1875 862.078125 C 90.269531 859.585938 76.632812 861.84375 66.609375 872.523438 C 64.882812 874.367188 67.652344 877.140625 69.386719 875.300781 C 93.632812 849.460938 128.960938 880.035156 157.417969 877.371094 C 173.109375 875.902344 184.023438 864.578125 189.035156 850.167969 C 195.644531 831.160156 191.511719 810.488281 194.429688 790.898438 C 199.449219 757.234375 218.628906 726.023438 245.792969 705.644531 C 259.695312 695.207031 275.347656 688.226562 292.128906 683.867188 C 310.167969 679.179688 328.796875 676.792969 346.511719 670.851562 C 362.574219 665.460938 377.230469 656.757812 387.972656 643.472656 C 397.742188 631.390625 403.976562 616.90625 407.726562 601.898438 C 416.25 567.746094 413.238281 531.195312 408.085938 496.769531 C 396.488281 419.253906 365.050781 344.679688 317.261719 282.535156 C 272.203125 223.941406 212.953125 176.390625 146.046875 144.984375 C 137.945312 141.179688 129.726562 137.613281 121.414062 134.277344 C 117.164062 132.578125 113.070312 131.339844 109.488281 128.445312 C 106.492188 126.019531 103.332031 123.832031 99.992188 121.914062 C 86.792969 114.320312 71.339844 110.878906 56.164062 111.46875 C 24.382812 112.691406 -3.316406 131.285156 -15.769531 160.644531 C -28.660156 191.039062 -25.367188 226.804688 -14.519531 257.292969 C -0.988281 295.316406 22.984375 328.339844 40.738281 364.332031 C 77.613281 439.0625 78.128906 525.714844 60.71875 605.777344 C 51.585938 647.78125 37.765625 688.605469 22.234375 728.628906 C 6.660156 768.753906 -11.519531 807.84375 -26.988281 848.003906 C -34.0625 866.359375 -39.449219 885.972656 -36.800781 905.789062 C -34.628906 922.058594 -26.964844 938.207031 -12.640625 947.074219 C -0.046875 954.871094 17.050781 956.894531 30.042969 948.886719 C 42.332031 941.3125 48 927.351562 52.320312 914.234375 C 56.699219 900.941406 59.875 886.066406 69.394531 875.308594 C 71.046875 873.410156 68.289062 870.625 66.609375 872.523438 Z M 66.609375 872.523438 " fill-opacity="1" fill-rule="nonzero"/><path fill="#c1ff72" d="M 129.875 806.738281 C 115.015625 808.015625 112.289062 791.496094 100.539062 786.554688 C 87.851562 781.222656 77.289062 793.988281 72.601562 804.175781 C 67.285156 815.726562 61.867188 830.40625 46.441406 828.953125 C 31.722656 827.566406 23.09375 814.179688 22.617188 800.324219 C 22.078125 784.59375 30.003906 770.597656 38.292969 757.816406 C 46.753906 744.75 55.097656 731.703125 62.5 717.996094 C 77.132812 690.917969 88.980469 662.324219 97.851562 632.855469 C 115.753906 573.367188 121.304688 510.335938 113.667969 448.675781 C 106.046875 387.097656 85.820312 327.105469 54.242188 273.664062 C 39.734375 249.121094 17.867188 223.511719 21.628906 193.042969 C 23.175781 180.554688 29.777344 166.898438 42.191406 162.109375 C 48.355469 159.734375 55.300781 159.601562 61.628906 161.378906 C 68.492188 163.316406 73.667969 168.164062 79.445312 172.082031 C 92.078125 180.65625 105.519531 186.753906 119.910156 191.695312 C 133.53125 196.371094 146.863281 201.882812 159.816406 208.1875 C 185.71875 220.78125 210.144531 236.457031 232.328125 254.828125 C 277.929688 292.585938 313.484375 341.511719 335.265625 396.578125 C 346.339844 424.578125 353.984375 453.980469 357.796875 483.855469 C 361.433594 512.351562 362.574219 542.433594 357.601562 570.84375 C 355.34375 583.75 351.53125 596.613281 344.636719 607.847656 C 337.28125 619.832031 326.4375 628.746094 313.300781 633.78125 C 287.007812 643.851562 257.757812 641.253906 231.609375 652.125 C 208.503906 661.722656 188.699219 678.613281 174.957031 699.464844 C 168.058594 709.933594 162.679688 721.460938 159.234375 733.519531 C 155.371094 747.078125 155.386719 760.730469 153.800781 774.613281 C 152.960938 781.90625 151.332031 789.628906 147.003906 795.714844 C 142.847656 801.554688 136.496094 805.820312 129.359375 806.808594 C 126.875 807.15625 127.933594 810.933594 130.402344 810.589844 C 144.769531 808.597656 153.660156 795.839844 156.484375 782.539062 C 159.589844 767.914062 158.398438 752.828125 162.042969 738.242188 C 168.449219 712.605469 183.742188 689.550781 204.222656 672.96875 C 214.542969 664.609375 226.335938 657.910156 238.875 653.527344 C 252.765625 648.671875 267.4375 647.082031 281.921875 644.988281 C 295.925781 642.964844 310.199219 640.429688 322.839844 633.75 C 334.453125 627.617188 343.640625 618.019531 349.929688 606.539062 C 363.214844 582.300781 364.777344 552.847656 364.5625 525.808594 C 364.320312 495.164062 360.070312 464.527344 352.105469 434.929688 C 336.34375 376.367188 305.980469 321.988281 263.6875 278.449219 C 222.933594 236.488281 172.292969 205.191406 116.914062 186.558594 C 101.71875 181.445312 87.679688 173.574219 74.828125 164.015625 C 64.71875 156.496094 51.710938 153.765625 39.804688 158.878906 C 28.476562 163.75 21.371094 175.347656 18.726562 187 C 15.714844 200.257812 17.746094 213.886719 22.710938 226.402344 C 28.570312 241.167969 37.695312 254.226562 46.023438 267.652344 C 54.429688 281.21875 62.109375 295.238281 69 309.628906 C 82.890625 338.609375 93.617188 369.101562 101.035156 400.371094 C 115.949219 463.261719 117.03125 529.054688 104.039062 592.378906 C 97.53125 624.089844 87.632812 655.136719 74.5 684.722656 C 68.050781 699.238281 60.847656 713.421875 52.886719 727.167969 C 44.894531 740.988281 35.242188 753.863281 27.628906 767.882812 C 20.859375 780.359375 16.398438 794.875 19.878906 809.058594 C 22.851562 821.191406 32.300781 830.914062 44.894531 832.6875 C 50.425781 833.464844 56.226562 832.507812 60.910156 829.347656 C 66.414062 825.628906 69.785156 819.835938 72.515625 813.929688 C 75.414062 807.671875 77.714844 801.0625 82.425781 795.871094 C 87.351562 790.445312 94.699219 786.867188 101.441406 791.457031 C 106.257812 794.726562 109.214844 800.121094 113.253906 804.207031 C 117.785156 808.785156 123.398438 811.210938 129.890625 810.644531 C 132.371094 810.449219 132.394531 806.527344 129.875 806.738281 Z M 129.875 806.738281 " fill-opacity="1" fill-rule="nonzero"/><path fill="#c1ff72" d="M 179.328125 635.96875 C 173.09375 643.066406 164.5625 647.636719 154.921875 646.632812 C 146.4375 645.75 138.621094 640.964844 133.058594 634.644531 C 119.046875 618.71875 122.082031 594.808594 129.015625 576.496094 C 133.011719 565.933594 138.449219 556.007812 143.578125 545.96875 C 148.375 536.574219 152.742188 527 156.34375 517.089844 C 163.566406 497.226562 167.949219 476.351562 169.523438 455.28125 C 172.550781 414.769531 164.664062 373.921875 146.707031 337.488281 C 138.273438 320.378906 127.703125 304.351562 115.371094 289.804688 C 109.183594 282.511719 102.539062 275.601562 95.492188 269.148438 C 88.292969 262.554688 80.527344 256.789062 72.84375 250.792969 C 65.316406 244.917969 57.695312 237.53125 57.160156 227.382812 C 56.925781 222.984375 58.148438 218.570312 61.410156 215.472656 C 64.515625 212.523438 68.898438 211.363281 73.085938 211.394531 C 83.445312 211.472656 91.304688 219.371094 99.679688 224.433594 C 108.695312 229.886719 118.230469 234.183594 127.640625 238.863281 C 159.652344 254.796875 188.660156 276.449219 213.492188 302.132812 C 238.382812 327.867188 259.070312 357.636719 274.574219 389.910156 C 290.035156 422.117188 300.316406 456.957031 304.097656 492.511719 C 307.140625 521.097656 311.183594 573.785156 270.511719 575.863281 C 252.796875 576.773438 233.347656 569.792969 217.03125 579.648438 C 203.566406 587.78125 197.402344 603.519531 190.824219 617.007812 C 187.578125 623.632812 184.148438 630.332031 179.328125 635.96875 C 177.695312 637.875 180.457031 640.667969 182.101562 638.746094 C 192.703125 626.332031 197.113281 610.132812 205.894531 596.566406 C 210.050781 590.148438 215.390625 584.355469 222.488281 581.210938 C 231.378906 577.28125 241.511719 578.042969 250.945312 578.851562 C 260.378906 579.648438 270.078125 580.820312 279.402344 578.558594 C 287.511719 576.601562 294.410156 571.808594 299.265625 565.058594 C 309.304688 551.097656 310.015625 532.222656 309.5625 515.691406 C 308.566406 479.191406 300.742188 442.976562 287.230469 409.085938 C 273.625 374.949219 254.386719 343.136719 230.582031 315.148438 C 206.875 287.277344 178.558594 263.226562 146.917969 244.808594 C 129.039062 234.402344 109.550781 227.046875 92.550781 215.136719 C 88.511719 212.304688 84.480469 209.589844 79.640625 208.34375 C 75.597656 207.300781 71.257812 207.160156 67.191406 208.148438 C 58.359375 210.289062 52.871094 218.074219 53.214844 227.070312 C 53.601562 237.09375 59.835938 245.074219 67.230469 251.277344 C 74.820312 257.652344 82.992188 263.242188 90.410156 269.847656 C 105.261719 283.066406 118.347656 298.257812 129.257812 314.890625 C 151.722656 349.125 164.664062 389.058594 166.097656 430.015625 C 166.875 452.074219 164.457031 474.210938 158.921875 495.578125 C 156.226562 505.96875 152.804688 516.171875 148.65625 526.066406 C 144.234375 536.605469 138.746094 546.628906 133.617188 556.832031 C 124.089844 575.777344 115.683594 597.191406 120.796875 618.695312 C 124.890625 635.898438 140.210938 651.386719 158.820312 650.695312 C 168.035156 650.351562 176.128906 645.566406 182.109375 638.761719 C 183.757812 636.855469 180.996094 634.070312 179.328125 635.96875 Z M 179.328125 635.96875 " fill-opacity="1" fill-rule="nonzero"/><path fill="#c1ff72" d="M 246.921875 535.894531 C 238.28125 531.730469 232.078125 524.507812 228.457031 515.691406 C 224.722656 506.613281 223.40625 496.769531 222.308594 487.085938 C 221.195312 477.175781 219.992188 467.292969 218.207031 457.476562 C 216.417969 447.617188 214.175781 437.839844 211.515625 428.179688 C 206.214844 408.960938 199.207031 390.21875 190.632812 372.21875 C 186.328125 363.171875 181.617188 354.316406 176.519531 345.683594 C 171.492188 337.175781 165.925781 329.074219 160.375 320.90625 C 157.957031 317.34375 155.722656 313.515625 154.5625 309.351562 C 153.574219 305.816406 153.449219 301.761719 156.082031 298.875 C 158.578125 296.148438 162.339844 296.046875 165.570312 297.480469 C 169.808594 299.363281 172.261719 303.480469 175.125 306.914062 C 178.386719 310.835938 181.953125 314.433594 185.472656 318.121094 C 188.746094 321.539062 191.953125 325.019531 195.082031 328.566406 C 201.417969 335.726562 207.476562 343.136719 213.226562 350.773438 C 224.683594 366.011719 234.972656 382.125 243.964844 398.921875 C 252.976562 415.75 260.691406 433.269531 266.996094 451.296875 C 270.140625 460.292969 272.933594 469.410156 275.363281 478.625 C 277.511719 486.78125 279.621094 495.023438 280.257812 503.460938 C 280.804688 510.722656 280.507812 518.445312 277.613281 525.246094 C 274.628906 532.253906 268.363281 537.730469 260.589844 538.480469 C 255.878906 538.945312 251.179688 537.886719 246.921875 535.894531 C 245.964844 535.445312 244.804688 535.625 244.242188 536.597656 C 243.746094 537.445312 243.980469 538.835938 244.945312 539.28125 C 253.957031 543.492188 264.613281 543.945312 272.839844 537.695312 C 278.972656 533.046875 282.3125 525.941406 283.589844 518.484375 C 284.96875 510.429688 284.390625 502.183594 282.988281 494.175781 C 281.363281 484.9375 278.785156 475.800781 276.117188 466.824219 C 270.496094 447.878906 263.328125 429.394531 254.773438 411.578125 C 246.234375 393.792969 236.28125 376.691406 225.035156 360.472656 C 213.777344 344.242188 201.246094 328.871094 187.550781 314.632812 C 183.835938 310.765625 180.148438 306.921875 176.753906 302.765625 C 175.195312 300.859375 173.78125 298.742188 171.957031 297.074219 C 170.339844 295.597656 168.511719 294.453125 166.488281 293.644531 C 162.75 292.148438 158.257812 292.203125 154.929688 294.679688 C 151.425781 297.292969 149.746094 301.542969 150.007812 305.847656 C 150.585938 315.359375 157.347656 323.195312 162.4375 330.730469 C 168.199219 339.269531 173.5625 348.066406 178.511719 357.101562 C 188.398438 375.144531 196.617188 394.089844 203.039062 413.632812 C 209.453125 433.160156 214.121094 453.296875 216.832031 473.675781 C 218.191406 483.855469 218.824219 494.160156 220.949219 504.226562 C 222.996094 513.929688 226.613281 523.730469 233.574219 531 C 236.832031 534.402344 240.710938 537.242188 244.953125 539.28125 C 247.203125 540.371094 249.195312 536.992188 246.921875 535.894531 Z M 246.921875 535.894531 " fill-opacity="1" fill-rule="nonzero"/><path fill="#c1ff72" d="M 880.082031 -132.082031 C 878.253906 -91.203125 861.816406 -51.03125 833.117188 -21.65625 C 809.152344 2.867188 777.847656 19.953125 757.300781 47.855469 C 747.117188 61.6875 740.8125 78 740.488281 95.273438 C 740.136719 114.085938 746.316406 132.65625 755.914062 148.667969 C 777.1875 184.167969 814.625 205.191406 849.710938 224.757812 C 887.460938 245.8125 925.539062 266.914062 966.410156 281.375 C 986.46875 288.472656 1007.140625 293.851562 1028.25 296.632812 C 1051.734375 299.722656 1075.457031 299.246094 1099.054688 297.875 C 1142.027344 295.371094 1185.554688 290.148438 1228.082031 299.597656 C 1246.296875 303.652344 1264.074219 310.261719 1279.679688 320.628906 C 1295.058594 330.847656 1306.539062 344.617188 1316.777344 359.792969 C 1326.125 373.648438 1334.746094 388.265625 1346.421875 400.355469 C 1359.0625 413.445312 1374.800781 421.152344 1393.007812 422.628906 C 1414.957031 424.40625 1436.765625 419.011719 1458.699219 418.878906 C 1480.726562 418.746094 1502.714844 422.234375 1523.667969 429.035156 C 1534.074219 432.40625 1544.15625 436.625 1553.914062 441.566406 C 1556.15625 442.703125 1558.148438 439.320312 1555.890625 438.175781 C 1536.785156 428.5 1516.34375 421.59375 1495.21875 417.984375 C 1473.878906 414.339844 1452.683594 414.527344 1431.230469 416.824219 C 1410.09375 419.089844 1387.292969 422.023438 1367.671875 411.75 C 1352.632812 403.878906 1341.957031 390.226562 1332.578125 376.472656 C 1323.152344 362.652344 1314.597656 348.097656 1303.289062 335.6875 C 1291.097656 322.300781 1275.71875 312.261719 1259.09375 305.253906 C 1222.78125 289.945312 1182.707031 288.941406 1143.9375 291.058594 C 1097.75 293.574219 1051.804688 298.84375 1006.097656 288.769531 C 963.242188 279.320312 923.273438 260.273438 884.824219 239.609375 C 866.214844 229.609375 847.640625 219.441406 829.4375 208.71875 C 811.613281 198.21875 794.214844 186.667969 779.453125 172.066406 C 751.851562 144.753906 733.769531 102.363281 751.59375 64.863281 C 766.390625 33.730469 798.03125 14.917969 823.15625 -6.976562 C 852.390625 -32.445312 872.738281 -65.929688 880.558594 -104.054688 C 882.457031 -113.292969 883.578125 -122.671875 884 -132.089844 C 884.109375 -134.605469 880.191406 -134.597656 880.082031 -132.082031 Z M 880.082031 -132.082031 " fill-opacity="1" fill-rule="nonzero"/><path fill="#c1ff72" d="M 923.359375 -132.082031 C 924.144531 -94.527344 912.898438 -57.105469 891.859375 -26.007812 C 881.265625 -10.355469 868.128906 3.699219 852.941406 14.980469 C 839.136719 25.238281 823.597656 32.796875 809.121094 42.003906 C 796.277344 50.175781 783.148438 59.882812 775.761719 73.558594 C 768.132812 87.683594 768.523438 104.144531 775.667969 118.375 C 783.957031 134.890625 798.894531 147.289062 813.621094 157.898438 C 830.722656 170.21875 848.5625 181.515625 866.984375 191.757812 C 939.820312 232.246094 1021.773438 256.179688 1104.957031 261.140625 C 1125.503906 262.367188 1146.015625 262.144531 1166.570312 261.464844 C 1186.285156 260.8125 1206.046875 260.058594 1225.742188 261.363281 C 1245.027344 262.640625 1264.554688 265.972656 1282.21875 274.105469 C 1299.644531 282.117188 1313.492188 294.671875 1325.515625 309.417969 C 1337.183594 323.734375 1347.257812 339.339844 1359.773438 352.976562 C 1372.273438 366.597656 1387.125 376.839844 1404.628906 382.949219 C 1443.714844 396.585938 1486.371094 390.859375 1525.832031 402.929688 C 1535.671875 405.941406 1545.144531 409.972656 1553.914062 415.398438 C 1556.0625 416.730469 1558.039062 413.34375 1555.890625 412.007812 C 1520.375 389.996094 1478.042969 392.328125 1438.222656 386.640625 C 1418.171875 383.78125 1398.074219 378.574219 1381.230469 366.878906 C 1366.039062 356.339844 1354.640625 341.410156 1343.691406 326.753906 C 1332.839844 312.214844 1322.0625 297.230469 1307.964844 285.609375 C 1294.0625 274.144531 1277.515625 266.640625 1260.066406 262.398438 C 1222.574219 253.285156 1183.421875 257.519531 1145.296875 258.109375 C 1061.316406 259.394531 977.167969 240.832031 901.261719 204.949219 C 882.613281 196.132812 864.453125 186.277344 846.910156 175.425781 C 829.59375 164.710938 811.839844 153.429688 797.003906 139.390625 C 783.710938 126.820312 772.019531 110.203125 774.222656 90.992188 C 776.066406 74.910156 787.3125 62.550781 799.734375 53.179688 C 813.121094 43.078125 828.167969 35.496094 842.421875 26.761719 C 857.597656 17.453125 871.21875 5.832031 882.792969 -7.695312 C 906.199219 -35.054688 921.21875 -69.355469 925.835938 -105.035156 C 926.996094 -114.015625 927.46875 -123.046875 927.277344 -132.097656 C 927.226562 -134.605469 923.304688 -134.613281 923.359375 -132.082031 Z M 923.359375 -132.082031 " fill-opacity="1" fill-rule="nonzero"/><path fill="#c1ff72" d="M 1553.90625 365.5625 C 1544.886719 361.421875 1535.351562 358.542969 1525.644531 356.503906 C 1488.796875 348.765625 1448.714844 354.089844 1414.480469 335.757812 C 1383.953125 319.40625 1366.785156 287.453125 1339.503906 267.085938 C 1309.980469 245.058594 1272.371094 241.191406 1236.652344 241.183594 C 1218.703125 241.183594 1200.769531 242.101562 1182.828125 242.417969 C 1163.144531 242.753906 1143.453125 242.070312 1123.839844 240.332031 C 1046.027344 233.421875 969.703125 210.335938 901.230469 172.695312 C 885.011719 163.78125 867.558594 154.589844 854.734375 140.960938 C 843.292969 128.804688 835.59375 110.886719 840.980469 94.222656 C 846.007812 78.65625 860.960938 70.171875 874.378906 62.683594 C 888.621094 54.730469 901.902344 45.621094 913.863281 34.492188 C 959.492188 -7.953125 984.429688 -72.101562 978 -134.136719 L 981.960938 -134.136719 C 982.320312 -130.6875 982.585938 -127.21875 982.753906 -123.746094 C 985.816406 -59.507812 956.425781 5.792969 906.375 46.160156 C 900.273438 51.078125 893.882812 55.648438 887.214844 59.773438 C 880.371094 64.023438 873.15625 67.640625 866.308594 71.875 C 859.253906 76.226562 852.328125 81.371094 847.914062 88.539062 C 842.949219 96.574219 842.171875 106.175781 844.445312 115.222656 C 849.167969 133.988281 864.929688 146.402344 880.597656 156.15625 C 897.261719 166.53125 914.660156 175.824219 932.382812 184.246094 C 1003.4375 218.003906 1081.699219 236.667969 1160.351562 238.441406 C 1196.972656 239.273438 1233.757812 235.015625 1270.300781 238.769531 C 1287.074219 240.496094 1303.683594 244.007812 1319.179688 250.785156 C 1335.082031 257.738281 1348.492188 268.355469 1360.535156 280.714844 C 1372.234375 292.730469 1382.804688 305.847656 1395.265625 317.109375 C 1409.21875 329.71875 1425.285156 337.976562 1443.609375 342.195312 C 1462.171875 346.460938 1481.28125 347.199219 1500.179688 348.953125 C 1519.308594 350.742188 1538.316406 354.105469 1555.890625 362.183594 C 1558.179688 363.234375 1556.1875 366.613281 1553.90625 365.5625 Z M 1553.90625 365.5625 " fill-opacity="1" fill-rule="nonzero"/><path fill="#c1ff72" d="M 1553.90625 331.121094 C 1545.898438 325.625 1536.992188 322.144531 1527.566406 319.949219 C 1508.722656 315.5625 1489.132812 315.210938 1470.875 308.339844 C 1454.972656 302.359375 1440.703125 292.972656 1427.066406 282.972656 C 1413.191406 272.796875 1399.800781 261.917969 1385.238281 252.71875 C 1371.882812 244.28125 1357.695312 237.179688 1343.023438 231.34375 C 1283.003906 207.488281 1217.34375 203.976562 1153.671875 198.980469 C 1091.007812 194.054688 1026.34375 188.410156 968.613281 161.519531 C 954.601562 154.996094 940.351562 147.460938 928.410156 137.5625 C 917.039062 128.152344 907.535156 114.792969 910.519531 99.3125 C 913.382812 84.5 926.386719 74.109375 937.535156 65.253906 C 950.207031 55.195312 962.042969 44.421875 972.511719 32.054688 C 1011.148438 -13.554688 1031.316406 -74.546875 1027.074219 -134.136719 L 1031.023438 -134.136719 C 1031.121094 -132.796875 1031.207031 -131.453125 1031.277344 -130.105469 C 1034.640625 -66.125 1010.347656 -1.0625 965.984375 45.140625 C 960.480469 50.875 954.671875 56.300781 948.578125 61.398438 C 942.4375 66.519531 935.953125 71.230469 930.023438 76.617188 C 924.535156 81.597656 919.257812 87.234375 916.246094 94.105469 C 912.921875 101.703125 913.179688 110.195312 916.777344 117.636719 C 923.679688 131.902344 938.570312 140.890625 951.847656 148.457031 C 965.546875 156.273438 979.984375 162.742188 994.84375 168.039062 C 1055.203125 189.539062 1120.195312 192.285156 1183.460938 197.390625 C 1245.613281 202.40625 1309.792969 209.082031 1366.28125 237.507812 C 1380.953125 244.894531 1394.617188 253.847656 1407.78125 263.636719 C 1421.644531 273.941406 1435.140625 284.832031 1449.984375 293.734375 C 1457.277344 298.109375 1464.894531 301.996094 1472.898438 304.921875 C 1482.042969 308.261719 1491.570312 310.105469 1501.167969 311.566406 C 1520.191406 314.449219 1539.601562 316.550781 1555.886719 327.742188 C 1557.960938 329.160156 1555.992188 332.558594 1553.90625 331.121094 Z M 1553.90625 331.121094 " fill-opacity="1" fill-rule="nonzero"/><path fill="#c1ff72" d="M 1065.632812 -131.5625 C 1074.949219 -77.171875 1063.71875 -19.503906 1034.476562 27.316406 C 1027.238281 38.90625 1018.824219 49.507812 1009.71875 59.679688 C 1001.046875 69.378906 991.957031 79.238281 986.0625 90.953125 C 980.5625 101.890625 978.566406 114.507812 983.269531 126.117188 C 987.785156 137.265625 997.320312 145.742188 1008.003906 150.886719 C 1021.246094 157.261719 1036.097656 158.25 1050.574219 157.222656 C 1066.636719 156.078125 1082.523438 152.988281 1098.535156 151.296875 C 1128.5625 148.128906 1158.847656 147.367188 1188.996094 148.972656 C 1250.148438 152.230469 1310.773438 165.246094 1367.835938 187.46875 C 1396.269531 198.542969 1423.238281 212.46875 1450.191406 226.710938 C 1476.929688 240.847656 1504.046875 254.957031 1533.132812 263.667969 C 1540.121094 265.761719 1547.199219 267.503906 1554.367188 268.867188 C 1556.832031 269.335938 1557.890625 265.558594 1555.410156 265.085938 C 1525.746094 259.449219 1498.042969 246.957031 1471.300781 233.304688 C 1444.285156 219.511719 1417.890625 204.546875 1390.042969 192.417969 C 1334.949219 168.421875 1276.175781 153.191406 1216.390625 147.164062 C 1186.347656 144.136719 1156.0625 143.445312 1125.917969 145.15625 C 1111.175781 145.996094 1096.472656 147.414062 1081.839844 149.390625 C 1065.308594 151.632812 1048.621094 154.800781 1031.875 153.269531 C 1018.714844 152.0625 1005.714844 147.296875 996.089844 137.996094 C 986.8125 129.023438 982.492188 116.515625 985.441406 103.804688 C 988.429688 90.90625 997.117188 80.03125 1005.601562 70.234375 C 1014.230469 60.277344 1023.136719 50.695312 1030.78125 39.925781 C 1061.96875 -4.027344 1076.515625 -59.476562 1071.929688 -113.097656 C 1071.371094 -119.628906 1070.515625 -126.136719 1069.410156 -132.605469 C 1068.980469 -135.085938 1065.207031 -134.035156 1065.632812 -131.5625 Z M 1065.632812 -131.5625 " fill-opacity="1" fill-rule="nonzero"/><path fill="#c1ff72" d="M 1146.078125 -132.082031 C 1148.269531 -83.785156 1135.515625 -35.046875 1109.75 5.886719 C 1103.3125 16.113281 1096.074219 25.828125 1088.066406 34.882812 C 1080.25 43.722656 1071.386719 51.617188 1064.109375 60.925781 C 1057.601562 69.253906 1052.285156 79.050781 1052.511719 89.910156 C 1052.722656 100.105469 1057.953125 109.320312 1065.625 115.835938 C 1073.386719 122.421875 1083.148438 126.601562 1093.210938 127.988281 C 1106.792969 129.863281 1120.59375 127.230469 1133.777344 124.101562 C 1147.183594 120.917969 1160.453125 117.480469 1174.128906 115.585938 C 1187.859375 113.679688 1201.757812 112.925781 1215.621094 113.089844 C 1270.921875 113.765625 1325.058594 129.085938 1376.507812 148.355469 C 1429.503906 168.203125 1480.820312 192.394531 1534.464844 210.539062 C 1541.066406 212.773438 1547.710938 214.90625 1554.382812 216.9375 C 1556.796875 217.675781 1557.832031 213.886719 1555.425781 213.160156 C 1501.515625 196.746094 1450.246094 173.117188 1397.917969 152.433594 C 1347.3125 132.429688 1294.851562 115.246094 1240.359375 110.433594 C 1213.691406 108.078125 1186.707031 108.863281 1160.382812 113.890625 C 1135.375 118.664062 1107.960938 130.71875 1082.640625 121.292969 C 1073.113281 117.75 1064.125 111.207031 1059.445312 101.988281 C 1054.402344 92.050781 1056.269531 80.820312 1061.632812 71.449219 C 1067.332031 61.507812 1075.800781 53.484375 1083.707031 45.320312 C 1091.878906 36.890625 1099.390625 27.84375 1106.171875 18.269531 C 1133.46875 -20.273438 1148.785156 -67.144531 1150.148438 -114.320312 C 1150.320312 -120.242188 1150.257812 -126.167969 1149.992188 -132.082031 C 1149.882812 -134.597656 1145.960938 -134.613281 1146.078125 -132.082031 Z M 1146.078125 -132.082031 " fill-opacity="1" fill-rule="nonzero"/><path fill="#c1ff72" d="M 1200.226562 -132.082031 C 1205.199219 -88.78125 1197.386719 -44.066406 1177.3125 -5.3125 C 1172.292969 4.371094 1166.28125 13.296875 1160.304688 22.402344 C 1154.566406 31.144531 1148.605469 41.441406 1149.851562 52.316406 C 1150.769531 60.339844 1155.496094 67.191406 1162.484375 71.160156 C 1169.316406 75.042969 1177.390625 76.320312 1185.140625 76.703125 C 1193.78125 77.128906 1202.304688 76.148438 1210.875 75.238281 C 1221.46875 74.109375 1232.097656 73.355469 1242.746094 72.972656 C 1264.019531 72.21875 1285.347656 72.949219 1306.53125 75.121094 C 1348.742188 79.441406 1390.359375 89.527344 1429.949219 104.761719 C 1469.535156 120 1507.128906 140.519531 1541.242188 165.730469 C 1545.390625 168.796875 1549.480469 171.933594 1553.519531 175.132812 C 1555.480469 176.6875 1558.273438 173.925781 1556.296875 172.359375 C 1523.296875 146.183594 1486.835938 124.515625 1448.121094 107.9375 C 1409.390625 91.351562 1368.566406 79.761719 1326.863281 73.710938 C 1306.050781 70.691406 1285.058594 69.003906 1264.027344 68.777344 C 1253.378906 68.660156 1242.730469 68.910156 1232.105469 69.539062 C 1222.105469 70.125 1212.195312 71.300781 1202.226562 72.242188 C 1194.101562 73.011719 1185.75 73.332031 1177.667969 72.03125 C 1170.414062 70.863281 1162.765625 68.320312 1158.023438 62.378906 C 1151.65625 54.410156 1153.191406 43.980469 1157.308594 35.371094 C 1162.109375 25.339844 1169.285156 16.621094 1174.929688 7.078125 C 1196.847656 -29.941406 1207.332031 -73.550781 1205.410156 -116.484375 C 1205.175781 -121.699219 1204.75 -126.898438 1204.15625 -132.089844 C 1203.859375 -134.558594 1199.9375 -134.589844 1200.226562 -132.082031 Z M 1200.226562 -132.082031 " fill-opacity="1" fill-rule="nonzero"/><path fill="#c1ff72" d="M 1553.511719 100.207031 C 1550.507812 97.421875 1547.453125 94.703125 1544.324219 92.058594 C 1531.46875 81.191406 1517.535156 71.625 1502.839844 63.429688 C 1488.199219 55.273438 1472.804688 48.503906 1456.894531 43.265625 C 1440.945312 38.011719 1424.476562 34.25 1407.804688 32.242188 C 1391.210938 30.242188 1374.421875 29.90625 1357.773438 31.378906 C 1338.460938 33.089844 1319.59375 38.335938 1300.210938 39.324219 C 1284.242188 40.128906 1267.375 37.410156 1254.132812 27.898438 C 1247.90625 23.429688 1242.707031 17.570312 1239.539062 10.542969 C 1236.03125 2.757812 1234.964844 -5.851562 1235.75 -14.3125 C 1237.390625 -32.140625 1245.96875 -47.828125 1255.253906 -62.746094 C 1264.648438 -77.839844 1275.492188 -93.5 1277.992188 -111.535156 C 1279.011719 -118.875 1278.683594 -126.84375 1276.574219 -134.136719 L 1280.714844 -134.136719 C 1283.460938 -123.785156 1282.910156 -112.351562 1280.046875 -102.339844 C 1275.085938 -84.953125 1264.160156 -70.09375 1254.976562 -54.785156 C 1246.070312 -39.949219 1238.328125 -23.191406 1239.539062 -5.453125 C 1240.085938 2.632812 1242.886719 10.613281 1248.039062 16.925781 C 1252.835938 22.808594 1259.210938 27.167969 1266.160156 30.164062 C 1282.652344 37.269531 1300.914062 36.117188 1318.253906 33.394531 C 1328.023438 31.867188 1337.722656 29.90625 1347.535156 28.59375 C 1355.832031 27.488281 1364.183594 26.832031 1372.550781 26.621094 C 1389.347656 26.195312 1406.167969 27.574219 1422.695312 30.546875 C 1439.25 33.519531 1455.5 38.140625 1471.175781 44.230469 C 1486.867188 50.339844 1502 57.890625 1516.289062 66.816406 C 1530.542969 75.722656 1543.960938 85.988281 1556.28125 97.4375 C 1558.140625 99.15625 1555.355469 101.921875 1553.511719 100.207031 Z M 1553.511719 100.207031 " fill-opacity="1" fill-rule="nonzero"/><path fill="#c1ff72" d="M 1328.964844 -131.5625 C 1332.328125 -119.675781 1333.984375 -107.347656 1333.679688 -94.992188 C 1333.527344 -88.851562 1332.902344 -82.71875 1331.75 -76.679688 C 1330.605469 -70.65625 1328.746094 -64.839844 1327.207031 -58.910156 C 1325.710938 -53.117188 1324.628906 -47.125 1325.492188 -41.140625 C 1326.234375 -35.996094 1328.699219 -31.230469 1332.453125 -27.628906 C 1340.015625 -20.40625 1350.882812 -18.195312 1361.015625 -18.917969 C 1367.28125 -19.363281 1373.433594 -20.707031 1379.550781 -22.0625 C 1385.042969 -23.277344 1390.539062 -24.40625 1396.105469 -25.214844 C 1406.683594 -26.75 1417.410156 -27.300781 1428.101562 -26.988281 C 1449.5625 -26.367188 1470.859375 -22.132812 1491.0625 -14.878906 C 1511.191406 -7.640625 1530.222656 2.679688 1547.292969 15.570312 C 1549.402344 17.164062 1551.480469 18.808594 1553.527344 20.488281 C 1554.34375 21.152344 1555.496094 21.285156 1556.304688 20.488281 C 1556.996094 19.796875 1557.128906 18.386719 1556.304688 17.710938 C 1539.625 4.042969 1520.976562 -7.039062 1501.027344 -15.230469 C 1481.171875 -23.386719 1460.101562 -28.539062 1438.703125 -30.320312 C 1428.0625 -31.207031 1417.347656 -31.230469 1406.707031 -30.34375 C 1401.351562 -29.894531 1396.019531 -29.222656 1390.71875 -28.320312 C 1384.851562 -27.324219 1379.066406 -25.921875 1373.238281 -24.703125 C 1362.722656 -22.515625 1351.328125 -21.136719 1341.371094 -26.15625 C 1337.308594 -28.203125 1333.71875 -31.199219 1331.503906 -35.226562 C 1328.800781 -40.160156 1328.691406 -45.996094 1329.59375 -51.429688 C 1330.566406 -57.28125 1332.484375 -62.902344 1333.96875 -68.632812 C 1335.519531 -74.65625 1336.5625 -80.8125 1337.136719 -87 C 1338.273438 -99.28125 1337.441406 -111.722656 1334.925781 -123.785156 C 1334.304688 -126.75 1333.574219 -129.691406 1332.753906 -132.597656 C 1332.054688 -135.03125 1328.273438 -134.003906 1328.964844 -131.5625 Z M 1328.964844 -131.5625 " fill-opacity="1" fill-rule="nonzero"/><path fill="#c1ff72" d="M 814.53125 -131.5625 C 819.257812 -108.1875 816.804688 -83.335938 806.839844 -61.601562 C 796.21875 -38.453125 777.535156 -22.941406 756.878906 -8.949219 C 737.621094 4.089844 717.628906 16.714844 704.074219 36.117188 C 697.941406 44.882812 693.375 54.867188 691.878906 65.515625 C 690.238281 77.191406 692.703125 88.734375 697.101562 99.546875 C 705.976562 121.394531 721.890625 140.742188 723.746094 165.011719 C 724.648438 176.828125 721.714844 188.808594 712.574219 196.910156 C 704.660156 203.921875 693.878906 206.21875 683.558594 206.132812 C 659.03125 205.921875 637.832031 192.675781 614.425781 187.359375 C 594.085938 182.742188 574.277344 186.449219 559.367188 201.5 C 533.890625 227.203125 527.046875 272.066406 489.375 284.777344 C 468.40625 291.851562 445.058594 286.980469 425.871094 277.015625 C 404.367188 265.847656 388.386719 247.617188 375.152344 227.683594 C 361.433594 207.019531 350.503906 184.699219 337.511719 163.597656 C 326 144.894531 312.644531 127.339844 297.761719 111.183594 C 267.25 78.078125 230.242188 50.898438 189.605469 31.527344 C 101.339844 -10.527344 -1.949219 -12.339844 -92.257812 24.886719 C -103.492188 29.519531 -114.472656 34.71875 -125.183594 40.460938 C -127.410156 41.652344 -125.425781 45.039062 -123.207031 43.847656 C -33.285156 -4.332031 75.589844 -11.5625 170.230469 27.207031 C 213 44.726562 252.246094 70.894531 284.953125 103.53125 C 301.226562 119.765625 315.890625 137.613281 328.539062 156.808594 C 342.355469 177.785156 353.40625 200.398438 366.664062 221.714844 C 378.75 241.136719 392.910156 260.113281 411.953125 273.226562 C 428.96875 284.949219 449.835938 292.636719 470.6875 291.984375 C 490.21875 291.378906 507.433594 282.621094 519.917969 267.699219 C 531.875 253.402344 539.480469 236.214844 549.472656 220.609375 C 560.277344 203.734375 574.863281 189.632812 596.089844 189.171875 C 621.585938 188.613281 643.839844 203.960938 668.351562 208.484375 C 686.539062 211.839844 708.007812 210.46875 720.070312 194.519531 C 733.488281 176.773438 727.378906 151.929688 718.601562 133.582031 C 707.882812 111.167969 690.71875 88.632812 696.394531 62.332031 C 701.585938 38.296875 721.191406 20.496094 740.449219 6.921875 C 760.523438 -7.234375 782.648438 -19.542969 797.929688 -39.296875 C 811.394531 -56.699219 818.929688 -78.214844 820.5 -100.078125 C 821.28125 -110.980469 820.476562 -121.910156 818.3125 -132.613281 C 817.808594 -135.078125 814.027344 -134.035156 814.53125 -131.5625 Z M 814.53125 -131.5625 " fill-opacity="1" fill-rule="nonzero"/><path fill="#c1ff72" d="M 735.503906 -131.5625 C 740.511719 -110.414062 737.660156 -87.296875 726.453125 -68.53125 C 715.726562 -50.558594 698.128906 -41.039062 679.660156 -32.65625 C 663.640625 -25.386719 646.128906 -18.855469 633.261719 -6.394531 C 618.171875 8.214844 615.960938 28.546875 622.441406 47.933594 C 629.644531 69.496094 644.152344 88.308594 645.21875 111.6875 C 645.636719 120.789062 644.261719 130.625 638.65625 138.097656 C 633.644531 144.769531 625.457031 148.613281 617.144531 148.457031 C 601.472656 148.167969 587.464844 136.246094 575.28125 127.699219 C 563.101562 119.160156 549.128906 109.222656 533.546875 109.5625 C 514.066406 109.984375 502.351562 126.648438 496.816406 143.570312 C 489.96875 164.476562 491.835938 190.425781 475.226562 207.042969 C 460.726562 221.558594 438.113281 220.664062 420.351562 213.324219 C 398.886719 204.453125 385.203125 186.300781 375.277344 165.960938 C 364.800781 144.488281 358.25 121.355469 347.765625 99.894531 C 338.578125 81.066406 326.789062 63.554688 313.074219 47.722656 C 285.238281 15.578125 249.628906 -9.34375 211.203125 -27.230469 C 172.136719 -45.414062 129.945312 -56.644531 87.117188 -61.105469 C 30.378906 -67.011719 -26.855469 -62.445312 -82.980469 -53.21875 C -96.9375 -50.917969 -110.839844 -48.324219 -124.707031 -45.539062 C -127.175781 -45.046875 -126.132812 -41.265625 -123.664062 -41.761719 C -66.503906 -53.25 -8.320312 -61.332031 50.109375 -59.625 C 97.6875 -58.234375 144.753906 -49.875 189.136719 -32.453125 C 229.851562 -16.464844 268.117188 6.929688 298.921875 38.179688 C 314.085938 53.5625 327.332031 70.816406 337.957031 89.644531 C 349.734375 110.511719 356.925781 133.257812 366.179688 155.253906 C 374.671875 175.441406 385.5625 195.984375 403.960938 208.789062 C 419.152344 219.363281 439.242188 225.46875 457.621094 221.078125 C 478.511719 216.082031 488.792969 197.867188 493.277344 178.214844 C 497.882812 158.023438 498.832031 131.699219 517.644531 118.625 C 532.753906 108.125 550.195312 115.890625 563.902344 124.703125 C 577.40625 133.382812 589.945312 144.738281 605.304688 150.109375 C 619.796875 155.175781 636.210938 150.925781 644.042969 136.992188 C 652.851562 121.332031 649.53125 100.417969 642.96875 84.59375 C 633.691406 62.230469 615.796875 37.738281 625.230469 12.472656 C 631.722656 -4.914062 649.09375 -14.308594 664.957031 -21.742188 C 681.839844 -29.652344 700.214844 -36.113281 714.597656 -48.371094 C 730.289062 -61.75 739.195312 -81.652344 741.335938 -101.921875 C 742.417969 -112.195312 741.671875 -122.570312 739.289062 -132.613281 C 738.703125 -135.0625 734.914062 -134.019531 735.503906 -131.5625 Z M 735.503906 -131.5625 " fill-opacity="1" fill-rule="nonzero"/><path fill="#c1ff72" d="M 656.488281 -96.394531 C 653.894531 -82.726562 645.394531 -70.523438 634.109375 -62.558594 C 628.492188 -58.589844 622.054688 -55.65625 615.328125 -54.199219 C 607.847656 -52.566406 600.113281 -52.769531 592.507812 -52.855469 C 584.855469 -52.933594 576.941406 -53.058594 569.609375 -50.589844 C 562.859375 -48.316406 557.351562 -43.492188 554.3125 -37.054688 C 548.257812 -24.273438 551.191406 -8.417969 553.09375 4.984375 C 554.867188 17.476562 554.992188 29.921875 550.054688 41.785156 C 545.867188 51.832031 537.523438 60.550781 525.84375 59.710938 C 512.152344 58.730469 504.109375 46.207031 498.429688 35.144531 C 495.058594 28.5625 492.273438 21.742188 487.570312 15.9375 C 483.164062 10.503906 477.085938 4.929688 469.847656 3.988281 C 463.730469 3.195312 457.707031 6.695312 455.113281 12.222656 C 452.699219 17.34375 452.847656 23.429688 453.066406 28.949219 C 453.527344 40.625 455.914062 53.980469 449.710938 64.636719 C 443.25 75.730469 429.210938 78.203125 417.582031 75.191406 C 403.121094 71.441406 393.5625 59.21875 386.238281 46.953125 C 382.152344 40.121094 378.507812 33.050781 374.398438 26.234375 C 370.523438 19.796875 366.367188 13.53125 361.960938 7.4375 C 344.042969 -17.324219 321.898438 -38.96875 297.375 -57.160156 C 272.738281 -75.449219 245.691406 -90.433594 217.429688 -102.347656 C 187.527344 -114.949219 156.289062 -123.972656 124.457031 -130.191406 C 121.980469 -130.679688 123.039062 -134.457031 125.5 -133.980469 C 134.167969 -132.285156 142.792969 -130.417969 151.363281 -128.300781 C 180.582031 -121.078125 209.140625 -111.066406 236.328125 -98.152344 C 263.460938 -85.257812 289.214844 -69.386719 312.464844 -50.332031 C 335.347656 -31.582031 355.671875 -9.664062 371.976562 15.054688 C 380.429688 27.859375 386.695312 42.175781 395.882812 54.472656 C 404.257812 65.6875 416.6875 74.421875 431.328125 72.195312 C 461.519531 67.601562 443.375 29.84375 451.292969 11.210938 C 453.425781 6.191406 457.652344 2.355469 462.875 0.734375 C 469.03125 -1.171875 475.5 0.773438 480.707031 4.238281 C 486.738281 8.238281 491.601562 14.019531 495.269531 20.203125 C 498.753906 26.0625 501.230469 32.476562 504.648438 38.390625 C 510.570312 48.625 521.3125 60.300781 534.378906 54.386719 C 544.957031 49.605469 549.027344 35.917969 550.140625 25.339844 C 551.527344 12.058594 547.683594 -1.03125 547.074219 -14.265625 C 546.46875 -27.199219 548.585938 -41.195312 559.476562 -49.585938 C 571.4375 -58.800781 587.582031 -56.496094 601.667969 -56.746094 C 609.03125 -56.878906 616.238281 -57.828125 623.035156 -60.785156 C 629.527344 -63.609375 635.371094 -67.851562 640.179688 -73.035156 C 650.621094 -84.277344 655.59375 -99.765625 652.535156 -114.933594 C 651.140625 -121.847656 648.324219 -128.394531 644.375 -134.136719 L 649.054688 -134.136719 C 655.957031 -122.953125 658.964844 -109.425781 656.488281 -96.394531 Z M 656.488281 -96.394531 " fill-opacity="1" fill-rule="nonzero"/></svg>